<svg width="302" height="105" xmlns="http://www.w3.org/2000/svg"><g fill="none" fill-rule="evenodd"><path d="M133.004 45.682c0-3.092-2.151-4.886-5.654-4.886h-7.621v9.586h7.744c3.503 0 5.53-1.608 5.53-4.7zm-1.045-17.13c0-2.97-1.905-4.577-5.347-4.577h-6.883v9.09h6.883c3.442 0 5.347-1.545 5.347-4.514zm11.677 18.552c0 7.174-5.224 11.812-14.32 11.812H109.22V15.502h19.421c8.789 0 14.013 4.391 14.013 11.256 0 5.256-3.134 8.658-7.314 9.895 5.04 1.051 8.297 5.504 8.297 10.451zm38.193-22.696v34.508h-10.51v-4.7c-2.09 2.969-5.777 5.071-10.386 5.071-7.928 0-13.275-5.504-13.275-14.718V24.408h10.448v18.738c0 4.7 2.642 7.298 6.576 7.298 4.056 0 6.638-2.598 6.638-7.298V24.408h10.51zm29.466 34.508V40.178c0-4.7-2.582-7.298-6.577-7.298s-6.576 2.598-6.576 7.298v18.738h-10.51V24.408h10.51v4.576c2.09-2.907 5.777-4.947 10.387-4.947 7.928 0 13.214 5.442 13.214 14.718v20.161h-10.448zm39.667 0V40.178c0-4.7-2.581-7.298-6.576-7.298-3.995 0-6.576 2.598-6.576 7.298v18.738H227.3V24.408h10.51v4.576c2.09-2.907 5.777-4.947 10.387-4.947 7.928 0 13.213 5.442 13.213 14.718v20.161h-10.448zm31.801-12.925l7.867-21.583H302l-21.51 50.897h-11.31l7.867-17.564-13.95-33.333h11.738l7.928 21.583zM126.24 86.725c0 3.994-3.403 7.118-8.412 7.118-4.98 0-8.609-2.773-8.609-6.958v-.598h5.116l.049.545c.15 1.677 1.35 2.747 3.444 2.747 2.209 0 3.474-1.059 3.474-2.662 0-1.567-1.045-2.21-4.336-3.076l-.611-.16a63.06 63.06 0 0 1-.623-.166c-4.405-1.207-6.448-2.853-6.448-6.666 0-4.213 3.39-6.927 8.38-6.927 4.696 0 7.965 2.51 8.314 6.588l.056.65h-5.301l-.048-.547c-.114-1.32-1.333-2.343-3.233-2.394-1.988-.06-3.196.85-3.196 2.502 0 1.397 1.01 2.02 4.128 2.87l.708.193c.28.076.506.14.724.202 4.36 1.25 6.425 2.952 6.425 6.74zm8.946-12.346V70.21h16.989v4.169h-6.025v19.24h-4.907V74.38h-6.057zm26.422 10.524V70.21h4.907v14.757c0 2.99 1.58 4.484 4.516 4.484 2.965 0 4.549-1.49 4.549-4.484V70.21h4.906v14.693c0 5.595-3.962 8.94-9.487 8.94-5.523 0-9.39-3.323-9.39-8.94zm38.006-14.693c7.625 0 12.614 4.611 12.614 11.785 0 7.12-4.965 11.625-12.614 11.625h-7.99V70.21h7.99zm0 19.241c4.94 0 7.61-2.666 7.61-7.456 0-4.853-2.697-7.616-7.61-7.616h-3.083V89.45h3.083zm22.612 4.169V70.21h4.906v23.41h-4.906zm39.785-11.753c0 6.9-5.265 11.976-12.158 11.976-6.85 0-12.158-5.097-12.158-11.976 0-6.852 5.313-11.945 12.158-11.945 6.888 0 12.158 5.072 12.158 11.945zm-19.312 0c0 4.602 2.907 7.616 7.154 7.616s7.154-3.014 7.154-7.616c0-4.588-2.892-7.552-7.154-7.552-4.262 0-7.154 2.964-7.154 7.552z" fill="#242842" fill-rule="nonzero"/><path d="M88.097 21.007L54.892 1.903a14.494 14.494 0 0 0-14.358 0L7.179 21.007C2.692 23.545 0 28.321 0 33.396v38.358c0 5.074 2.692 9.85 7.18 12.388l.299.149c.398.199 11.317 6.468 32.756 18.806a14.494 14.494 0 0 0 14.358 0l33.205-19.104c4.487-2.538 7.18-7.314 7.18-12.389V33.246c.299-4.925-2.394-9.701-6.88-12.239z" fill="#114EEC" fill-rule="nonzero"/><path d="M47.902 53.4c.168 0 .333.005.494.016.162-.01.327-.016.495-.016.885 0 1.718.058 2.505.17A42.085 42.085 0 0 1 53.6 41.185c3.516-10.404 10.487-22.06 12.958-21.355 2.47.705 3.31 11.914-.18 25.255-1.4 5.354-3.413 9.907-6.038 13.659 3.425 4.268 5.06 10.285 7.28 14.942 2.57 5.395 2.204 9.295-1.101 11.7-7.475 4.281-12.125 6.859-13.951 7.733-1.826.873-3.135 1.62-4.153 1.648-1.018.029-2.366-.775-4.192-1.648-1.826-.874-6.477-3.452-13.951-7.732-3.306-2.406-3.672-6.306-1.101-11.701 1.967-4.126 3.474-9.319 6.174-13.417-3.053-4.001-5.388-9.046-7.007-15.134-1.636-6.155-2.456-11.866-2.617-16.303-.189-5.18.52-8.622 1.873-9.002 1.222-.342 3.526 2.24 5.982 6.181 2.592 4.16 5.353 9.832 7.188 15.174a41.41 41.41 0 0 1 2.251 12.922c1.433-.455 3.049-.707 4.886-.707z" fill="#FFF"/></g></svg>